<svg width="22" height="22" viewBox="0 0 22 22" fill="none" xmlns="http://www.w3.org/2000/svg">
<path d="M9.75013 11C9.75013 11.2984 9.86866 11.5845 10.0796 11.7955C10.2906 12.0065 10.5768 12.125 10.8751 12.125C11.1735 12.125 11.4596 12.0065 11.6706 11.7955C11.8816 11.5845 12.0001 11.2984 12.0001 11C12.0001 10.7016 11.8816 10.4155 11.6706 10.2045C11.4596 9.99353 11.1735 9.875 10.8751 9.875C10.5768 9.875 10.2906 9.99353 10.0796 10.2045C9.86866 10.4155 9.75013 10.7016 9.75013 11ZM14.4376 11C14.4376 11.2984 14.5562 11.5845 14.7671 11.7955C14.9781 12.0065 15.2643 12.125 15.5626 12.125C15.861 12.125 16.1471 12.0065 16.3581 11.7955C16.5691 11.5845 16.6876 11.2984 16.6876 11C16.6876 10.7016 16.5691 10.4155 16.3581 10.2045C16.1471 9.99353 15.861 9.875 15.5626 9.875C15.2643 9.875 14.9781 9.99353 14.7671 10.2045C14.5562 10.4155 14.4376 10.7016 14.4376 11ZM5.06263 11C5.06263 11.2984 5.18116 11.5845 5.39214 11.7955C5.60312 12.0065 5.88926 12.125 6.18763 12.125C6.486 12.125 6.77215 12.0065 6.98313 11.7955C7.19411 11.5845 7.31263 11.2984 7.31263 11C7.31263 10.7016 7.19411 10.4155 6.98313 10.2045C6.77215 9.99353 6.486 9.875 6.18763 9.875C5.88926 9.875 5.60312 9.99353 5.39214 10.2045C5.18116 10.4155 5.06263 10.7016 5.06263 11ZM20.5595 6.93125C20.0298 5.67266 19.2704 4.54297 18.3025 3.57266C17.3413 2.60796 16.2002 1.84114 14.9439 1.31563C13.6548 0.774219 12.2861 0.5 10.8751 0.5H10.8283C9.40795 0.507031 8.03216 0.788281 6.73841 1.34141C5.49285 1.87232 4.36247 2.64049 3.41029 3.60312C2.4517 4.57109 1.69935 5.69609 1.17904 6.95C0.639977 8.24844 0.368102 9.62891 0.375133 11.0492C0.383086 12.6769 0.768161 14.2806 1.50013 15.7344V19.2969C1.50013 19.5828 1.61372 19.857 1.81591 20.0592C2.0181 20.2614 2.29232 20.375 2.57826 20.375H6.1431C7.59692 21.107 9.20059 21.492 10.8283 21.5H10.8775C12.2814 21.5 13.6431 21.2281 14.9251 20.6961C16.1751 20.1768 17.3119 19.419 18.272 18.4648C19.24 17.5063 20.0017 16.3859 20.5337 15.1367C21.0869 13.843 21.3681 12.4672 21.3751 11.0469C21.3822 9.61953 21.1056 8.23437 20.5595 6.93125ZM17.0181 17.1969C15.3751 18.8234 13.1954 19.7188 10.8751 19.7188H10.8353C9.42201 19.7117 8.0181 19.3602 6.77826 18.6992L6.58138 18.5938H3.28138V15.2938L3.17591 15.0969C2.51498 13.857 2.16341 12.4531 2.15638 11.0398C2.14701 8.70313 3.03998 6.50937 4.67826 4.85703C6.3142 3.20469 8.50091 2.29062 10.8376 2.28125H10.8775C12.0494 2.28125 13.1861 2.50859 14.2572 2.95859C15.3025 3.39687 16.24 4.02734 17.0462 4.83359C17.8501 5.6375 18.4829 6.57734 18.9212 7.62266C19.3759 8.70547 19.6033 9.85391 19.5986 11.0398C19.5845 13.3742 18.6681 15.5609 17.0181 17.1969Z" fill="#8C8C8C"/>
</svg>
