<svg>
    <symbol xmlns="http://www.w3.org/2000/svg" viewBox="0 0 48 13" id="logo">
        <path
            d="M0.992188 0.726562H5.375C6.5 0.726562 7.41406 1.07552 8.11719 1.77344C8.82031 2.46615 9.17188 3.375 9.17188 4.5C9.17188 5.61979 8.8099 6.52865 8.08594 7.22656C7.36719 7.92448 6.4349 8.27344 5.28906 8.27344H3.00781V12H0.992188V0.726562ZM3.00781 2.375V6.64844H4.83594C5.5599 6.64844 6.1224 6.46094 6.52344 6.08594C6.92448 5.71094 7.125 5.18229 7.125 4.5C7.125 3.82292 6.92448 3.29948 6.52344 2.92969C6.1276 2.5599 5.56771 2.375 4.84375 2.375H3.00781Z">
        </path>
        <path
            d="M10.5 12V3.71875H12.4453V12H10.5ZM12.2344 2.32812C12.026 2.53125 11.7708 2.63281 11.4688 2.63281C11.1667 2.63281 10.9115 2.53125 10.7031 2.32812C10.4948 2.11979 10.3906 1.86979 10.3906 1.57812C10.3906 1.28125 10.4948 1.03125 10.7031 0.828125C10.9115 0.619792 11.1667 0.515625 11.4688 0.515625C11.7708 0.515625 12.026 0.619792 12.2344 0.828125C12.4479 1.03125 12.5547 1.28125 12.5547 1.57812C12.5547 1.86979 12.4479 2.11979 12.2344 2.32812Z">
        </path>
        <path
            d="M16.1016 7.17188L19.2188 3.71875H21.4609L18.1484 7.28125L21.6016 12H19.3516L16.7344 8.46094L16.0781 9.125V12H14.1328V0.726562H16.0781V7.17188H16.1016Z">
        </path>
        <path
            d="M25.3672 10.6641C25.9245 10.6641 26.3932 10.5 26.7734 10.1719C27.1589 9.83854 27.3516 9.42448 27.3516 8.92969V8.29688L25.4375 8.41406C24.9688 8.44531 24.6042 8.5625 24.3438 8.76562C24.0885 8.96354 23.9609 9.22656 23.9609 9.55469C23.9609 9.89323 24.0885 10.1641 24.3438 10.3672C24.6042 10.5651 24.9453 10.6641 25.3672 10.6641ZM24.7812 12.1328C23.974 12.1328 23.3099 11.901 22.7891 11.4375C22.2734 10.974 22.0156 10.3724 22.0156 9.63281C22.0156 8.89844 22.2865 8.31771 22.8281 7.89062C23.375 7.46354 24.1536 7.21875 25.1641 7.15625L27.3516 7.03125V6.4375C27.3516 6.00521 27.2135 5.66927 26.9375 5.42969C26.6667 5.1901 26.2891 5.07031 25.8047 5.07031C25.3516 5.07031 24.9818 5.17188 24.6953 5.375C24.4089 5.57812 24.2344 5.85417 24.1719 6.20312H22.3672C22.4089 5.41667 22.7448 4.77865 23.375 4.28906C24.0104 3.79427 24.8464 3.54688 25.8828 3.54688C26.9089 3.54688 27.7292 3.79688 28.3438 4.29688C28.9635 4.79688 29.2734 5.46354 29.2734 6.29688V12H27.3984V10.6797H27.3594C27.125 11.1224 26.7708 11.4766 26.2969 11.7422C25.8229 12.0026 25.3177 12.1328 24.7812 12.1328Z">
        </path>
        <path
            d="M33.9375 12.1328C32.8906 12.1328 32.0547 11.7474 31.4297 10.9766C30.8099 10.2057 30.5 9.16406 30.5 7.85156C30.5 6.54427 30.8099 5.50521 31.4297 4.73438C32.0547 3.96354 32.8906 3.57812 33.9375 3.57812C34.5208 3.57812 35.0365 3.71615 35.4844 3.99219C35.9375 4.26823 36.276 4.64062 36.5 5.10938H36.5469V0.726562H38.4922V12H36.5859V10.5859H36.5547C36.3255 11.0599 35.9792 11.4375 35.5156 11.7188C35.0573 11.9948 34.5312 12.1328 33.9375 12.1328ZM34.5234 5.17969C33.8984 5.17969 33.4036 5.42188 33.0391 5.90625C32.6745 6.38542 32.4922 7.03646 32.4922 7.85938C32.4922 8.6875 32.6719 9.34115 33.0312 9.82031C33.3958 10.2995 33.8932 10.5391 34.5234 10.5391C35.138 10.5391 35.6302 10.2969 36 9.8125C36.3698 9.32812 36.5547 8.67708 36.5547 7.85938C36.5547 7.04688 36.3698 6.39844 36 5.91406C35.6302 5.42448 35.138 5.17969 34.5234 5.17969Z">
        </path>
        <path
            d="M47.4688 3.71875V12H45.5938V10.5625H45.5547C45.0964 11.6198 44.2526 12.1484 43.0234 12.1484C42.1224 12.1484 41.4062 11.875 40.875 11.3281C40.349 10.776 40.0859 10.0234 40.0859 9.07031V3.71875H42.0312V8.67969C42.0312 9.27344 42.1719 9.72656 42.4531 10.0391C42.7396 10.3516 43.1562 10.5078 43.7031 10.5078C44.2604 10.5078 44.7031 10.3255 45.0312 9.96094C45.3594 9.59635 45.5234 9.11198 45.5234 8.50781V3.71875H47.4688Z">
        </path>
    </symbol>

    <symbol xmlns="http://www.w3.org/2000/svg" viewBox="0 0 14 14" id="search">
        <path
            d="M13.2125 12.3516L9.15469 8.29375C9.78438 7.47969 10.125 6.48438 10.125 5.4375C10.125 4.18438 9.63594 3.00937 8.75156 2.12344C7.86719 1.2375 6.68906 0.75 5.4375 0.75C4.18594 0.75 3.00781 1.23906 2.12344 2.12344C1.2375 3.00781 0.75 4.18438 0.75 5.4375C0.75 6.68906 1.23906 7.86719 2.12344 8.75156C3.00781 9.6375 4.18438 10.125 5.4375 10.125C6.48438 10.125 7.47813 9.78438 8.29219 9.15625L12.35 13.2125C12.3619 13.2244 12.376 13.2338 12.3916 13.2403C12.4071 13.2467 12.4238 13.2501 12.4406 13.2501C12.4575 13.2501 12.4741 13.2467 12.4897 13.2403C12.5052 13.2338 12.5194 13.2244 12.5312 13.2125L13.2125 12.5328C13.2244 12.5209 13.2338 12.5068 13.2403 12.4912C13.2467 12.4757 13.2501 12.459 13.2501 12.4422C13.2501 12.4254 13.2467 12.4087 13.2403 12.3931C13.2338 12.3776 13.2244 12.3635 13.2125 12.3516ZM7.9125 7.9125C7.25 8.57344 6.37187 8.9375 5.4375 8.9375C4.50312 8.9375 3.625 8.57344 2.9625 7.9125C2.30156 7.25 1.9375 6.37187 1.9375 5.4375C1.9375 4.50312 2.30156 3.62344 2.9625 2.9625C3.625 2.30156 4.50312 1.9375 5.4375 1.9375C6.37187 1.9375 7.25156 2.3 7.9125 2.9625C8.57344 3.625 8.9375 4.50312 8.9375 5.4375C8.9375 6.37187 8.57344 7.25156 7.9125 7.9125Z">
        </path>
    </symbol>

    <symbol  xmlns="http://www.w3.org/2000/svg" viewBox="0 0 22 22" id="comment">
        <path d="M9.75013 11C9.75013 11.2984 9.86866 11.5845 10.0796 11.7955C10.2906 12.0065 10.5768 12.125 10.8751 12.125C11.1735 12.125 11.4596 12.0065 11.6706 11.7955C11.8816 11.5845 12.0001 11.2984 12.0001 11C12.0001 10.7016 11.8816 10.4155 11.6706 10.2045C11.4596 9.99353 11.1735 9.875 10.8751 9.875C10.5768 9.875 10.2906 9.99353 10.0796 10.2045C9.86866 10.4155 9.75013 10.7016 9.75013 11ZM14.4376 11C14.4376 11.2984 14.5562 11.5845 14.7671 11.7955C14.9781 12.0065 15.2643 12.125 15.5626 12.125C15.861 12.125 16.1471 12.0065 16.3581 11.7955C16.5691 11.5845 16.6876 11.2984 16.6876 11C16.6876 10.7016 16.5691 10.4155 16.3581 10.2045C16.1471 9.99353 15.861 9.875 15.5626 9.875C15.2643 9.875 14.9781 9.99353 14.7671 10.2045C14.5562 10.4155 14.4376 10.7016 14.4376 11ZM5.06263 11C5.06263 11.2984 5.18116 11.5845 5.39214 11.7955C5.60312 12.0065 5.88926 12.125 6.18763 12.125C6.486 12.125 6.77215 12.0065 6.98313 11.7955C7.19411 11.5845 7.31263 11.2984 7.31263 11C7.31263 10.7016 7.19411 10.4155 6.98313 10.2045C6.77215 9.99353 6.486 9.875 6.18763 9.875C5.88926 9.875 5.60312 9.99353 5.39214 10.2045C5.18116 10.4155 5.06263 10.7016 5.06263 11ZM20.5595 6.93125C20.0298 5.67266 19.2704 4.54297 18.3025 3.57266C17.3413 2.60796 16.2002 1.84114 14.9439 1.31563C13.6548 0.774219 12.2861 0.5 10.8751 0.5H10.8283C9.40795 0.507031 8.03216 0.788281 6.73841 1.34141C5.49285 1.87232 4.36247 2.64049 3.41029 3.60312C2.4517 4.57109 1.69935 5.69609 1.17904 6.95C0.639977 8.24844 0.368102 9.62891 0.375133 11.0492C0.383086 12.6769 0.768161 14.2806 1.50013 15.7344V19.2969C1.50013 19.5828 1.61372 19.857 1.81591 20.0592C2.0181 20.2614 2.29232 20.375 2.57826 20.375H6.1431C7.59692 21.107 9.20059 21.492 10.8283 21.5H10.8775C12.2814 21.5 13.6431 21.2281 14.9251 20.6961C16.1751 20.1768 17.3119 19.419 18.272 18.4648C19.24 17.5063 20.0017 16.3859 20.5337 15.1367C21.0869 13.843 21.3681 12.4672 21.3751 11.0469C21.3822 9.61953 21.1056 8.23438 20.5595 6.93125ZM17.0181 17.1969C15.3751 18.8234 13.1954 19.7188 10.8751 19.7188H10.8353C9.42201 19.7117 8.0181 19.3602 6.77826 18.6992L6.58138 18.5938H3.28138V15.2938L3.17591 15.0969C2.51498 13.857 2.16341 12.4531 2.15638 11.0398C2.14701 8.70312 3.03998 6.50937 4.67826 4.85703C6.3142 3.20469 8.50091 2.29062 10.8376 2.28125H10.8775C12.0494 2.28125 13.1861 2.50859 14.2572 2.95859C15.3025 3.39687 16.24 4.02734 17.0462 4.83359C17.8501 5.6375 18.4829 6.57734 18.9212 7.62266C19.3759 8.70547 19.6033 9.85391 19.5986 11.0398C19.5845 13.3742 18.6681 15.5609 17.0181 17.1969Z" ></path>
    </symbol>
    <symbol  xmlns="http://www.w3.org/2000/svg" viewBox="0 0 19 20" id="like-icon">
        <path d="M18.1383 10.5094C18.532 9.98909 18.75 9.35159 18.75 8.6883C18.75 7.63596 18.1617 6.63987 17.2148 6.0844C16.9711 5.94142 16.6935 5.86617 16.4109 5.86643H10.7906L10.9313 2.98596C10.9641 2.28987 10.718 1.62893 10.2398 1.12502C10.0052 0.876652 9.72212 0.679038 9.40808 0.544395C9.09405 0.409752 8.75574 0.34094 8.41406 0.342211C7.19531 0.342211 6.11719 1.16252 5.79375 2.33674L3.78047 9.62581H0.75C0.335156 9.62581 0 9.96096 0 10.3758V18.9071C0 19.3219 0.335156 19.6571 0.75 19.6571H14.843C15.0586 19.6571 15.2695 19.6149 15.4641 19.5305C16.5797 19.0547 17.2992 17.9649 17.2992 16.7555C17.2992 16.4602 17.257 16.1696 17.1727 15.8883C17.5664 15.368 17.7844 14.7305 17.7844 14.0672C17.7844 13.7719 17.7422 13.4813 17.6578 13.2C18.0516 12.6797 18.2695 12.0422 18.2695 11.3789C18.2648 11.0836 18.2227 10.7906 18.1383 10.5094ZM1.6875 17.9696V11.3133H3.58594V17.9696H1.6875ZM16.6031 9.69612L16.0898 10.1414L16.4156 10.7367C16.523 10.9328 16.5786 11.153 16.5773 11.3766C16.5773 11.7633 16.4086 12.1313 16.118 12.3844L15.6047 12.8297L15.9305 13.425C16.0378 13.6211 16.0935 13.8413 16.0922 14.0649C16.0922 14.4516 15.9234 14.8196 15.6328 15.0727L15.1195 15.518L15.4453 16.1133C15.5526 16.3094 15.6083 16.5296 15.607 16.7531C15.607 17.2781 15.2977 17.7516 14.8195 17.9672H5.08594V11.2383L7.41797 2.78909C7.4781 2.57252 7.60719 2.38147 7.78566 2.24486C7.96414 2.10825 8.18228 2.03354 8.40703 2.03205C8.58516 2.03205 8.76094 2.08362 8.90156 2.18909C9.13359 2.36252 9.25781 2.62502 9.24375 2.90393L9.01875 7.55393H16.3875C16.8047 7.8094 17.0625 8.24065 17.0625 8.6883C17.0625 9.07502 16.8938 9.44065 16.6031 9.69612Z"></path>
    </symbol>
    <symbol  xmlns="http://www.w3.org/2000/svg" viewBox="0 0 20 20" id="save">
        <path d="M19.1867 4.87422L15.3757 1.06328C15.1999 0.8875 14.9843 0.758594 14.7499 0.688281V0.625H1.62494C1.2101 0.625 0.874939 0.960156 0.874939 1.375V18.625C0.874939 19.0398 1.2101 19.375 1.62494 19.375H18.8749C19.2898 19.375 19.6249 19.0398 19.6249 18.625V5.93359C19.6249 5.53516 19.4679 5.15547 19.1867 4.87422ZM7.24994 2.3125H13.2499V4.75H7.24994V2.3125ZM17.9374 17.6875H2.56244V2.3125H5.74994V5.5C5.74994 5.91484 6.0851 6.25 6.49994 6.25H13.9999C14.4148 6.25 14.7499 5.91484 14.7499 5.5V2.82344L17.9374 6.01094V17.6875ZM10.2499 8.35938C8.38666 8.35938 6.87494 9.87109 6.87494 11.7344C6.87494 13.5977 8.38666 15.1094 10.2499 15.1094C12.1132 15.1094 13.6249 13.5977 13.6249 11.7344C13.6249 9.87109 12.1132 8.35938 10.2499 8.35938ZM10.2499 13.6094C9.214 13.6094 8.37494 12.7703 8.37494 11.7344C8.37494 10.6984 9.214 9.85938 10.2499 9.85938C11.2859 9.85938 12.1249 10.6984 12.1249 11.7344C12.1249 12.7703 11.2859 13.6094 10.2499 13.6094Z"></path>
    </symbol>
    <symbol  xmlns="http://www.w3.org/2000/svg" viewBox="0 0 18 20" id="share">
        <path d="M14.6874 13.5625C14.0195 13.5625 13.4031 13.7969 12.9203 14.1883L8.064 10.675C8.14532 10.2287 8.14532 9.77133 8.064 9.325L12.9203 5.81172C13.4031 6.20312 14.0195 6.4375 14.6874 6.4375C16.239 6.4375 17.4999 5.17656 17.4999 3.625C17.4999 2.07344 16.239 0.8125 14.6874 0.8125C13.1359 0.8125 11.8749 2.07344 11.8749 3.625C11.8749 3.89688 11.9124 4.15703 11.9851 4.40547L7.3726 7.74531C6.68822 6.83828 5.60072 6.25 4.37494 6.25C2.30306 6.25 0.624939 7.92812 0.624939 10C0.624939 12.0719 2.30306 13.75 4.37494 13.75C5.60072 13.75 6.68822 13.1617 7.3726 12.2547L11.9851 15.5945C11.9124 15.843 11.8749 16.1055 11.8749 16.375C11.8749 17.9266 13.1359 19.1875 14.6874 19.1875C16.239 19.1875 17.4999 17.9266 17.4999 16.375C17.4999 14.8234 16.239 13.5625 14.6874 13.5625ZM14.6874 2.40625C15.3601 2.40625 15.9062 2.95234 15.9062 3.625C15.9062 4.29766 15.3601 4.84375 14.6874 4.84375C14.0148 4.84375 13.4687 4.29766 13.4687 3.625C13.4687 2.95234 14.0148 2.40625 14.6874 2.40625ZM4.37494 12.0625C3.23822 12.0625 2.31244 11.1367 2.31244 10C2.31244 8.86328 3.23822 7.9375 4.37494 7.9375C5.51166 7.9375 6.43744 8.86328 6.43744 10C6.43744 11.1367 5.51166 12.0625 4.37494 12.0625ZM14.6874 17.5938C14.0148 17.5938 13.4687 17.0477 13.4687 16.375C13.4687 15.7023 14.0148 15.1562 14.6874 15.1562C15.3601 15.1562 15.9062 15.7023 15.9062 16.375C15.9062 17.0477 15.3601 17.5938 14.6874 17.5938Z"></path>
    </symbol>
</svg>