<svg width="19" height="20" viewBox="0 0 19 20" fill="none" xmlns="http://www.w3.org/2000/svg">
<path d="M18.1383 10.5094C18.532 9.98909 18.75 9.35159 18.75 8.6883C18.75 7.63596 18.1617 6.63987 17.2148 6.0844C16.9711 5.94142 16.6935 5.86617 16.4109 5.86643H10.7906L10.9313 2.98596C10.9641 2.28987 10.718 1.62893 10.2398 1.12502C10.0052 0.876652 9.72212 0.679038 9.40808 0.544395C9.09405 0.409752 8.75574 0.34094 8.41406 0.342211C7.19531 0.342211 6.11719 1.16252 5.79375 2.33674L3.78047 9.62581H0.75C0.335156 9.62581 0 9.96096 0 10.3758V18.9071C0 19.3219 0.335156 19.6571 0.75 19.6571H14.843C15.0586 19.6571 15.2695 19.6149 15.4641 19.5305C16.5797 19.0547 17.2992 17.9649 17.2992 16.7555C17.2992 16.4602 17.257 16.1696 17.1727 15.8883C17.5664 15.368 17.7844 14.7305 17.7844 14.0672C17.7844 13.7719 17.7422 13.4813 17.6578 13.2C18.0516 12.6797 18.2695 12.0422 18.2695 11.3789C18.2648 11.0836 18.2227 10.7906 18.1383 10.5094ZM1.6875 17.9696V11.3133H3.58594V17.9696H1.6875ZM16.6031 9.69612L16.0898 10.1414L16.4156 10.7367C16.523 10.9328 16.5786 11.153 16.5773 11.3766C16.5773 11.7633 16.4086 12.1313 16.118 12.3844L15.6047 12.8297L15.9305 13.425C16.0378 13.6211 16.0935 13.8413 16.0922 14.0649C16.0922 14.4516 15.9234 14.8196 15.6328 15.0727L15.1195 15.518L15.4453 16.1133C15.5526 16.3094 15.6083 16.5296 15.607 16.7531C15.607 17.2781 15.2977 17.7516 14.8195 17.9672H5.08594V11.2383L7.41797 2.78909C7.4781 2.57252 7.60719 2.38147 7.78566 2.24486C7.96414 2.10825 8.18228 2.03354 8.40703 2.03205C8.58516 2.03205 8.76094 2.08362 8.90156 2.18909C9.13359 2.36252 9.25781 2.62502 9.24375 2.90393L9.01875 7.55393H16.3875C16.8047 7.8094 17.0625 8.24065 17.0625 8.6883C17.0625 9.07502 16.8938 9.44065 16.6031 9.69612Z" fill="#8C8C8C"/>
</svg>
