<svg width="20" height="20" viewBox="0 0 20 20" fill="none" xmlns="http://www.w3.org/2000/svg">
<path d="M19.1867 4.87422L15.3757 1.06328C15.1999 0.8875 14.9843 0.758594 14.7499 0.688281V0.625H1.62494C1.2101 0.625 0.874939 0.960156 0.874939 1.375V18.625C0.874939 19.0398 1.2101 19.375 1.62494 19.375H18.8749C19.2898 19.375 19.6249 19.0398 19.6249 18.625V5.93359C19.6249 5.53516 19.4679 5.15547 19.1867 4.87422ZM7.24994 2.3125H13.2499V4.75H7.24994V2.3125ZM17.9374 17.6875H2.56244V2.3125H5.74994V5.5C5.74994 5.91484 6.0851 6.25 6.49994 6.25H13.9999C14.4148 6.25 14.7499 5.91484 14.7499 5.5V2.82344L17.9374 6.01094V17.6875ZM10.2499 8.35938C8.38666 8.35938 6.87494 9.87109 6.87494 11.7344C6.87494 13.5977 8.38666 15.1094 10.2499 15.1094C12.1132 15.1094 13.6249 13.5977 13.6249 11.7344C13.6249 9.87109 12.1132 8.35938 10.2499 8.35938ZM10.2499 13.6094C9.214 13.6094 8.37494 12.7703 8.37494 11.7344C8.37494 10.6984 9.214 9.85938 10.2499 9.85938C11.2859 9.85938 12.1249 10.6984 12.1249 11.7344C12.1249 12.7703 11.2859 13.6094 10.2499 13.6094Z" fill="#8C8C8C"/>
</svg>
