<svg width="18" height="20" viewBox="0 0 18 20" fill="none" xmlns="http://www.w3.org/2000/svg">
<path d="M14.6874 13.5625C14.0195 13.5625 13.4031 13.7969 12.9203 14.1883L8.064 10.675C8.14532 10.2287 8.14532 9.77133 8.064 9.325L12.9203 5.81172C13.4031 6.20312 14.0195 6.4375 14.6874 6.4375C16.239 6.4375 17.4999 5.17656 17.4999 3.625C17.4999 2.07344 16.239 0.8125 14.6874 0.8125C13.1359 0.8125 11.8749 2.07344 11.8749 3.625C11.8749 3.89687 11.9124 4.15703 11.9851 4.40547L7.37259 7.74531C6.68822 6.83828 5.60072 6.25 4.37494 6.25C2.30306 6.25 0.624939 7.92812 0.624939 10C0.624939 12.0719 2.30306 13.75 4.37494 13.75C5.60072 13.75 6.68822 13.1617 7.37259 12.2547L11.9851 15.5945C11.9124 15.843 11.8749 16.1055 11.8749 16.375C11.8749 17.9266 13.1359 19.1875 14.6874 19.1875C16.239 19.1875 17.4999 17.9266 17.4999 16.375C17.4999 14.8234 16.239 13.5625 14.6874 13.5625ZM14.6874 2.40625C15.3601 2.40625 15.9062 2.95234 15.9062 3.625C15.9062 4.29766 15.3601 4.84375 14.6874 4.84375C14.0148 4.84375 13.4687 4.29766 13.4687 3.625C13.4687 2.95234 14.0148 2.40625 14.6874 2.40625ZM4.37494 12.0625C3.23822 12.0625 2.31244 11.1367 2.31244 10C2.31244 8.86328 3.23822 7.9375 4.37494 7.9375C5.51166 7.9375 6.43744 8.86328 6.43744 10C6.43744 11.1367 5.51166 12.0625 4.37494 12.0625ZM14.6874 17.5938C14.0148 17.5938 13.4687 17.0477 13.4687 16.375C13.4687 15.7023 14.0148 15.1562 14.6874 15.1562C15.3601 15.1562 15.9062 15.7023 15.9062 16.375C15.9062 17.0477 15.3601 17.5938 14.6874 17.5938Z" fill="#8C8C8C"/>
</svg>
